HIERARCHY
ROOT Hips
{
	OFFSET 0.00000 0.00000 0.00000
	CHANNELS 6 Xposition Yposition Zposition Zrotation Yrotation Xrotation 
	JOINT LHipJoint
	{
		OFFSET 0 0 0
		CHANNELS 3 Zrotation Yrotation Xrotation
		JOINT LeftHip
		{
			OFFSET 1.74857 -1.85566 0.69197
			CHANNELS 3 Zrotation Yrotation Xrotation
			JOINT LeftKnee
			{
				OFFSET 2.40003 -6.59403 0.00000
				CHANNELS 3 Zrotation Yrotation Xrotation
				JOINT LeftAnkle
				{
					OFFSET 2.82169 -7.75254 0.00000
					CHANNELS 3 Zrotation Yrotation Xrotation
					JOINT LeftToe
					{
						OFFSET 0.16466 -0.45240 2.26890
						CHANNELS 3 Zrotation Yrotation Xrotation
						End Site
						{
							OFFSET 0.00000 -0.00000 1.16486
						}
					}
				}
			}
		}
	}
	JOINT RHipJoint
	{
		OFFSET 0 0 0
		CHANNELS 3 Zrotation Yrotation Xrotation
		JOINT RightHip
		{
			OFFSET -1.64169 -1.85566 0.69197
			CHANNELS 3 Zrotation Yrotation Xrotation
			JOINT RightKnee
			{
				OFFSET -2.41814 -6.64379 0.00000
				CHANNELS 3 Zrotation Yrotation Xrotation
				JOINT RightAnkle
				{
					OFFSET -2.80588 -7.70911 0.00000
					CHANNELS 3 Zrotation Yrotation Xrotation
					JOINT RightToe
					{
						OFFSET -0.19098 -0.52472 2.25401
						CHANNELS 3 Zrotation Yrotation Xrotation
						End Site
						{
							OFFSET -0.00000 -0.00000 1.16333
						}
					}
				}
			}
		}
	}
	JOINT lowerback
	{
		OFFSET 0 0 0
		CHANNELS 3 Zrotation Yrotation Xrotation
		JOINT Chest
		{
			OFFSET -0.02828 2.14690 -0.11061
			CHANNELS 3 Zrotation Yrotation Xrotation
			JOINT Chest2
			{
				OFFSET -0.00167 2.15299 0.00759
				CHANNELS 3 Zrotation Yrotation Xrotation
				JOINT lowerneck
				{
					OFFSET 0 0 0
					CHANNELS 3 Zrotation Yrotation Xrotation
					JOINT Neck
					{
						OFFSET -0.09296 1.90118 0.07197
						CHANNELS 3 Zrotation Yrotation Xrotation
						JOINT Head
						{
							OFFSET 0.08490 1.89526 -0.24604
							CHANNELS 3 Zrotation Yrotation Xrotation
							End Site
							{
								OFFSET 0.03186 1.92109 -0.09483
							}
						}
					}
				}
				JOINT LeftCollar
				{
					OFFSET 0 0 0
					CHANNELS 3 Zrotation Yrotation Xrotation
					JOINT LeftShoulder
					{
						OFFSET 3.21569 1.44644 -0.03720
CHANNELS 3 Zrotation Xrotation Yrotation
						JOINT LeftElbow
						{
OFFSET 0 -5.476510 -0.000000
CHANNELS 3 Zrotation Xrotation Yrotation
							JOINT LeftWrist
							{
OFFSET 0 -3.090580 -0.000000
CHANNELS 3 Zrotation Xrotation Yrotation
								JOINT lhand
								{
									OFFSET 0 0 0
CHANNELS 3 Zrotation Xrotation Yrotation
									JOINT LFingers
									{
OFFSET 0 -0.771610 -0.000000
CHANNELS 3 Zrotation Xrotation Yrotation
										End Site
										{
OFFSET 0 -0.622090 -0.000000
										}
									}
								}
								JOINT LThumb
								{
OFFSET 0 0.000000 0.000000
CHANNELS 3 Zrotation Xrotation Yrotation
									End Site
									{
OFFSET 0 -0.631590 0.631590
									}
								}
							}
						}
					}
				}
				JOINT RightCollar
				{
					OFFSET 0 0 0
					CHANNELS 3 Zrotation Yrotation Xrotation
					JOINT RightShoulder
					{
						OFFSET -3.38693 1.28904 -0.07093
CHANNELS 3 Zrotation Xrotation Yrotation
						JOINT RightElbow
						{
OFFSET 0 -5.141820 -0.000000
CHANNELS 3 Zrotation Xrotation Yrotation
							JOINT RightWrist
							{
OFFSET 0 -3.355650 -0.000000
CHANNELS 3 Zrotation Xrotation Yrotation
								JOINT rhand
								{
									OFFSET 0 0 0
CHANNELS 3 Zrotation Xrotation Yrotation
									JOINT RFingers
									{
OFFSET 0 -0.801040 -0.000000
CHANNELS 3 Zrotation Xrotation Yrotation
										End Site
										{
OFFSET 0 -0.645820 -0.000000
										}
									}
								}
								JOINT RThumb
								{
OFFSET 0 0.000000 0.000000
CHANNELS 3 Zrotation Xrotation Yrotation
									End Site
									{
OFFSET 0 -0.655680 0.655680
									}
								}
							}
						}
					}
				}
			}
		}
	}
}
MOTION
Frames: 12
Frame Time: 0.008333333333333333
0.534438 17.474477 -0.976938 5.809140 -8.642456 -3.499011 0.000000 0.000000 0.000000 -26.678815 2.017465 -9.191265 3.065828 10.800788 31.611080 1.676380 2.422731 -25.435159 0.366202 -3.886992 -10.759039 0.000000 0.000000 0.000000 9.949456 9.498234 -12.352983 -4.507386 -12.806509 38.648519 -1.492084 -1.761095 -23.775595 -0.732190 5.466695 -15.244689 -3.494454 3.614005 6.427664 -3.413926 4.562090 3.013388 -1.869168 2.268354 -0.475138 -3.924455 -2.821994 2.079491 6.631961 -4.040521 4.614479 2.776775 -2.010740 1.335492 0.000000 0.000000 0.000000 20.737235 7.300095 -70.071183 95.256125 -59.893634 64.550309 10.559747 -28.085157 -23.901501 0.000000 0.000000 0.000000 -7.125000 0.000000 0.000000 -19.373608 53.189836 4.022014 0.000000 0.000000 0.000000 -62.525262 -54.631543 1.830205 -90.029066 -59.990861 -60.025197 -23.017796 -64.306583 -12.426990 0.000000 0.000000 0.000000 7.125000 0.000000 0.000000 2.931510 16.526255 1.978372
0.444972 17.731611 -0.756730 4.422825 -5.323594 -2.203979 0.000000 0.000000 0.000000 -25.469961 -0.615032 -4.946329 1.979742 8.823472 25.244946 1.309133 3.752858 -23.256741 0.307706 -3.566243 -9.859531 0.000000 0.000000 0.000000 11.950379 6.847053 -8.325089 -3.021529 -10.729626 31.373587 -1.173292 -4.275514 -22.414590 -0.683210 5.284892 -14.722871 -2.748595 3.543521 4.592280 -2.335887 4.556337 1.285058 -1.119882 2.279168 -1.269852 -5.042724 -3.981234 -1.237624 5.330638 -5.565008 8.662506 2.462838 -2.747748 3.369021 0.000000 0.000000 0.000000 22.567503 2.201989 -69.574344 118.576580 -56.676115 84.471671 3.399328 -36.161455 -25.178672 0.000000 0.000000 0.000000 -7.125000 0.000000 0.000000 -26.956732 53.096582 5.698056 0.000000 0.000000 0.000000 -42.743285 -35.988450 25.618635 -126.682136 -54.246943 -91.153533 -13.887126 -60.515761 -8.067752 0.000000 0.000000 0.000000 7.125000 0.000000 0.000000 9.386095 21.713004 5.317940
0.367407 17.951806 -0.497674 3.344086 -2.186304 -0.986661 0.000000 0.000000 0.000000 -24.403674 -2.544409 -0.427223 1.028608 6.450967 18.098690 0.861474 5.713249 -20.507010 0.471645 -4.404301 -12.217011 0.000000 0.000000 0.000000 13.837451 5.281087 -3.655749 -1.748602 -8.321216 23.694263 -0.822348 -7.469629 -21.416702 -0.478433 4.435802 -12.306096 -1.532946 3.333789 3.009332 -1.691541 4.342945 -0.923962 -1.107620 2.176757 -2.615779 -6.030161 -4.684758 -2.388128 4.290456 -6.442088 12.829247 1.991196 -3.225490 4.567694 0.000000 0.000000 0.000000 23.750227 -4.714211 -54.228285 135.358534 -50.590767 98.038364 3.845127 -48.953669 -25.717723 0.000000 0.000000 0.000000 -7.125000 0.000000 0.000000 -26.881097 53.654753 6.061584 0.000000 0.000000 0.000000 -29.742081 -19.499190 25.980496 -141.442366 -47.191648 -102.626396 -11.247374 -67.048262 -9.649485 0.000000 0.000000 0.000000 7.125000 0.000000 0.000000 11.201108 20.231128 6.765518
0.319471 18.075467 -0.265057 3.023229 -1.011574 0.200067 0.000000 0.000000 0.000000 -24.026381 -3.228561 3.263103 0.428951 4.202453 11.646963 0.557694 7.412739 -18.720371 0.509386 -4.574620 -12.699171 0.000000 0.000000 0.000000 14.866909 6.017920 0.054850 -1.013125 -6.403788 17.960756 -0.449410 -10.852564 -20.869833 -0.429065 4.203352 -11.649411 -1.212983 2.925455 1.014039 -1.068158 3.841303 -2.777131 -0.573724 1.932266 -3.428698 -6.152256 -4.430764 -1.544608 3.402564 -6.114356 16.479818 1.750785 -3.138741 5.514410 0.000000 0.000000 0.000000 21.449021 -3.991391 -30.526047 139.946631 -48.101468 101.521034 5.507020 -67.632347 -25.090342 0.000000 0.000000 0.000000 -7.125000 0.000000 0.000000 -24.909860 53.390510 5.404218 0.000000 0.000000 0.000000 -18.808201 -10.583998 12.556632 -141.049229 -47.435056 -102.337225 -15.796295 -77.153844 -15.856750 0.000000 0.000000 0.000000 7.125000 0.000000 0.000000 7.974312 13.648177 5.926175
0.277993 18.112393 -0.112309 3.101505 -0.852410 1.015293 0.000000 0.000000 0.000000 -23.987288 -3.060482 5.227003 0.192197 2.823524 7.787767 0.394446 8.293216 -17.673989 0.498846 -4.527332 -12.565353 0.000000 0.000000 0.000000 15.066268 6.423355 1.407621 -0.768024 -5.596094 15.616764 -0.319282 -11.924996 -20.715739 -0.403120 4.076247 -11.291220 -1.293393 2.328391 -0.683797 -0.653384 3.074697 -3.628107 -0.019456 1.562517 -3.377329 -5.684201 -3.883782 0.289864 2.787443 -5.437264 17.922639 1.555138 -2.843978 5.590421 0.000000 0.000000 0.000000 15.835766 0.633994 -7.330864 130.998617 -52.582908 94.620666 8.853704 -83.348668 -26.631043 0.000000 0.000000 0.000000 -7.125000 0.000000 0.000000 -22.639497 55.416635 6.012484 0.000000 0.000000 0.000000 -12.121743 -5.043887 -3.031087 -127.561352 -53.930394 -91.865622 -25.614694 -96.407886 -17.966355 0.000000 0.000000 0.000000 7.125000 0.000000 0.000000 1.584006 10.205856 1.278112
0.201624 18.084508 -0.109984 3.101773 -0.779030 0.241147 0.000000 0.000000 0.000000 -23.756543 -3.045938 5.183176 0.273578 3.364665 9.295824 0.459467 8.093081 -18.236191 0.550375 -4.752415 -13.203794 0.000000 0.000000 0.000000 15.386102 6.066694 1.373326 -0.905333 -6.063380 16.968262 -0.420966 -11.440270 -21.209251 -0.399128 4.056139 -11.234592 -0.628477 2.244664 0.494938 -0.648804 2.965261 -2.890788 -0.413293 1.486484 -3.243339 -5.718081 -3.632081 1.573241 2.980753 -5.138916 15.362992 1.676123 -2.688973 4.573316 0.000000 0.000000 0.000000 15.278213 6.153199 1.031477 122.124000 -55.716883 87.420130 12.099779 -88.531010 -27.998648 0.000000 0.000000 0.000000 -7.125000 0.000000 0.000000 -20.285967 57.342106 6.306806 0.000000 0.000000 0.000000 -10.142577 0.155181 -9.635020 -121.257081 -55.965574 -86.702787 -29.202702 -100.901092 -20.682991 0.000000 0.000000 0.000000 7.125000 0.000000 0.000000 -0.408082 6.591804 -0.358571
0.114126 18.080423 -0.213733 3.404477 -1.929536 0.206749 0.000000 0.000000 0.000000 -23.721259 -2.342016 4.621842 0.276643 3.383039 9.346955 0.455804 8.177238 -18.274100 0.472224 -4.405608 -12.220855 0.000000 0.000000 0.000000 15.096518 6.260818 -0.365303 -1.103462 -6.674536 18.754755 -0.533452 -9.944722 -20.793646 -0.443490 4.272633 -11.844928 -0.582856 2.566622 1.359692 -0.739497 3.388615 -2.380802 -0.573039 1.694248 -3.195740 -5.919363 -3.620433 1.835236 3.227374 -5.161013 15.330372 1.789987 -2.699718 4.532006 0.000000 0.000000 0.000000 16.315097 5.008105 -0.465991 120.873424 -56.072658 86.384647 11.193714 -88.724690 -28.214140 0.000000 0.000000 0.000000 -7.125000 0.000000 0.000000 -21.352407 57.351320 6.663505 0.000000 0.000000 0.000000 -11.442851 -0.959792 -6.992426 -121.337570 -55.942785 -86.769426 -29.988997 -98.017044 -19.356604 0.000000 0.000000 0.000000 7.125000 0.000000 0.000000 -1.083710 7.905229 -0.924504
0.001579 18.087875 -0.460244 3.940850 -4.299256 0.976041 0.000000 0.000000 0.000000 -23.831753 -1.551745 1.908541 0.343729 3.765647 10.418492 0.366528 9.270729 -18.328873 0.664905 -5.214741 -14.522192 0.000000 0.000000 0.000000 14.526742 8.127064 -3.918637 -1.445530 -7.600143 21.506208 -0.619325 -8.217501 -20.062310 -0.481542 4.449976 -12.346181 -0.259078 2.868794 2.362722 -0.987206 3.791921 -1.720551 -1.056039 1.884984 -3.040168 -4.895069 -2.339747 0.818153 1.461440 -3.170490 16.688445 1.136750 -1.757687 4.983421 0.000000 0.000000 0.000000 16.518978 1.932605 -6.322950 116.256769 -57.226442 82.527194 11.259729 -87.269547 -27.781918 0.000000 0.000000 0.000000 -7.125000 0.000000 0.000000 -20.993351 56.964188 6.345832 0.000000 0.000000 0.000000 -14.242600 -3.827844 0.469946 -116.492967 -57.173772 -82.725838 -26.125943 -84.899259 -16.696155 0.000000 0.000000 0.000000 7.125000 0.000000 0.000000 1.127742 11.509228 0.879956
-0.124549 18.044672 -0.877321 4.167259 -8.920415 0.203958 0.000000 0.000000 0.000000 -23.421578 0.617842 -1.888355 0.683624 5.285755 14.725447 0.556714 9.387234 -20.489903 0.574418 -4.853287 -13.490558 0.000000 0.000000 0.000000 14.499694 10.520042 -6.728403 -1.854048 -8.555129 24.413341 -0.695211 -5.328272 -18.578398 -0.511642 4.584949 -12.728414 0.512543 2.483240 5.347477 -0.680959 3.319474 1.026736 -1.212038 1.651532 -1.867738 -3.191682 1.831376 -0.730810 -1.864891 3.143768 22.171225 0.126378 1.114969 6.865593 0.000000 0.000000 0.000000 15.470023 -3.212335 -18.667815 98.462422 -59.727017 67.321882 14.096027 -85.425079 -33.619976 0.000000 0.000000 0.000000 -7.125000 0.000000 0.000000 -22.698836 63.000577 10.188904 0.000000 0.000000 0.000000 -22.703769 -6.662784 21.412585 -103.101273 -59.340732 -71.320880 -20.257964 -64.460856 -10.216116 0.000000 0.000000 0.000000 7.125000 0.000000 0.000000 4.796114 19.126289 2.970165
-0.242490 17.955006 -1.389484 3.792738 -13.838487 0.332402 0.000000 0.000000 0.000000 -21.989962 3.476630 -8.802751 1.494720 7.722858 21.875496 0.865946 7.962850 -22.198838 0.505684 -4.558606 -12.653841 0.000000 0.000000 0.000000 15.122154 12.926013 -11.167519 -2.375744 -9.608272 27.717410 -0.725630 -2.176761 -17.021762 -0.497581 4.522198 -12.550753 0.568713 1.175295 8.677206 -1.183642 1.569026 4.748008 -1.670279 0.800565 0.099423 -1.905358 5.889034 0.023763 -3.936519 9.001045 23.560804 -0.410520 3.799721 7.332501 0.000000 0.000000 0.000000 14.954553 -10.405509 -37.779001 91.003356 -59.996191 60.868920 25.674127 -78.406432 -37.706826 0.000000 0.000000 0.000000 -7.125000 0.000000 0.000000 -13.228776 70.195459 8.010707 0.000000 0.000000 0.000000 -33.316453 -8.099427 43.146560 -97.619181 -59.779529 -66.593459 -15.780477 -55.793835 -6.297557 0.000000 0.000000 0.000000 7.125000 0.000000 0.000000 8.079243 23.450371 4.237527
-0.305222 17.871492 -1.818768 1.865120 -15.198567 2.726002 0.000000 0.000000 0.000000 -19.086111 3.110309 -16.818494 2.624268 10.059998 29.171571 1.045587 6.457528 -22.674199 0.539914 -4.707965 -13.077515 0.000000 0.000000 0.000000 16.881243 14.087681 -16.068533 -2.632666 -10.075268 29.220747 -0.648549 -0.939967 -15.582356 -0.410440 4.111636 -11.391053 0.279080 -1.162717 11.839083 -1.776010 -1.572201 6.538548 -1.818116 -0.768368 0.136744 -2.061259 8.131288 0.602089 -5.215862 12.044194 21.446009 -0.670410 5.196889 6.666171 0.000000 0.000000 0.000000 11.781533 -15.966361 -55.663672 93.825724 -59.944377 63.312502 30.182624 -76.738306 -38.040038 0.000000 0.000000 0.000000 -7.125000 0.000000 0.000000 -7.179703 72.015992 4.619149 0.000000 0.000000 0.000000 -43.990223 -3.716948 54.601656 -104.515996 -59.187996 -72.536918 -13.445937 -52.088085 -3.881183 0.000000 0.000000 0.000000 7.125000 0.000000 0.000000 9.952300 25.969188 4.655825
-0.312578 17.766165 -2.115514 0.803487 -16.076109 3.843820 0.000000 0.000000 0.000000 -17.316533 3.638005 -21.673112 3.479600 11.433523 33.756362 1.173103 4.625716 -22.611537 0.666907 -5.221883 -14.542582 0.000000 0.000000 0.000000 17.740882 14.979626 -19.445040 -3.007126 -10.706474 31.296280 -0.638840 0.072062 -15.081134 -0.383237 3.975608 -11.008101 -0.691990 -2.312252 14.751499 -2.978718 -3.237802 8.136291 -2.259499 -1.608930 0.197809 -2.160941 9.536908 0.826253 -5.717217 13.673899 17.579730 -0.817454 6.101575 5.459074 0.000000 0.000000 0.000000 9.714698 -18.214485 -69.853629 102.048208 -59.444137 70.414558 27.755029 -79.068591 -39.190258 0.000000 0.000000 0.000000 -7.125000 0.000000 0.000000 -12.233299 72.311374 7.974119 0.000000 0.000000 0.000000 -50.585315 3.583596 57.431266 -113.336747 -57.838325 -80.063466 -13.655271 -54.990881 -2.183983 0.000000 0.000000 0.000000 7.125000 0.000000 0.000000 9.930023 27.687057 4.238036
